<mxfile host="app.diagrams.net" modified="2020-08-28T09:28:48.576Z" agent="5.0 (Macintosh; Intel Mac OS X 10_15_6) AppleWebKit/605.1.15 (KHTML, like Gecko) Version/13.1.2 Safari/605.1.15" etag="F2na8Zgi7cVDntp11_uT" version="13.6.5" type="github">
  <diagram id="wm88RmSog-cchs6Tprj5" name="Page-1">
    <mxGraphModel dx="1186" dy="705" grid="1" gridSize="10" guides="1" tooltips="1" connect="1" arrows="1" fold="1" page="1" pageScale="1" pageWidth="827" pageHeight="1169" math="0" shadow="0">
      <root>
        <mxCell id="0" />
        <mxCell id="1" parent="0" />
        <mxCell id="rsF1plFDK6CUpO22hqRV-6" style="edgeStyle=orthogonalEdgeStyle;orthogonalLoop=1;jettySize=auto;html=1;exitX=0;exitY=0.5;exitDx=0;exitDy=0;entryX=0;entryY=0.5;entryDx=0;entryDy=0;fontSize=20;curved=1;" edge="1" parent="1" source="rsF1plFDK6CUpO22hqRV-1" target="rsF1plFDK6CUpO22hqRV-5">
          <mxGeometry relative="1" as="geometry">
            <Array as="points">
              <mxPoint x="80" y="280" />
              <mxPoint x="80" y="120" />
            </Array>
          </mxGeometry>
        </mxCell>
        <mxCell id="rsF1plFDK6CUpO22hqRV-19" value="defines" style="edgeLabel;html=1;align=center;verticalAlign=middle;resizable=0;points=[];fontSize=20;labelBackgroundColor=none;" vertex="1" connectable="0" parent="rsF1plFDK6CUpO22hqRV-6">
          <mxGeometry x="-0.0125" y="-2" relative="1" as="geometry">
            <mxPoint x="38" y="-2" as="offset" />
          </mxGeometry>
        </mxCell>
        <mxCell id="rsF1plFDK6CUpO22hqRV-1" value="State" style="ellipse;whiteSpace=wrap;html=1;fontSize=20;fillColor=#fa6800;strokeColor=#C73500;fontColor=#ffffff;" vertex="1" parent="1">
          <mxGeometry x="160" y="240" width="120" height="80" as="geometry" />
        </mxCell>
        <mxCell id="rsF1plFDK6CUpO22hqRV-14" style="edgeStyle=orthogonalEdgeStyle;curved=1;orthogonalLoop=1;jettySize=auto;html=1;exitX=0;exitY=0.5;exitDx=0;exitDy=0;entryX=1;entryY=0.5;entryDx=0;entryDy=0;fontSize=20;" edge="1" parent="1" source="rsF1plFDK6CUpO22hqRV-2" target="rsF1plFDK6CUpO22hqRV-1">
          <mxGeometry relative="1" as="geometry" />
        </mxCell>
        <mxCell id="rsF1plFDK6CUpO22hqRV-18" value="contains" style="edgeLabel;html=1;align=center;verticalAlign=middle;resizable=0;points=[];fontSize=20;labelBackgroundColor=none;" vertex="1" connectable="0" parent="rsF1plFDK6CUpO22hqRV-14">
          <mxGeometry x="0.0833" y="5" relative="1" as="geometry">
            <mxPoint x="5" y="15" as="offset" />
          </mxGeometry>
        </mxCell>
        <mxCell id="rsF1plFDK6CUpO22hqRV-2" value="Store" style="ellipse;whiteSpace=wrap;html=1;fontSize=20;fillColor=#6a00ff;strokeColor=#3700CC;fontColor=#ffffff;" vertex="1" parent="1">
          <mxGeometry x="400" y="240" width="120" height="80" as="geometry" />
        </mxCell>
        <mxCell id="rsF1plFDK6CUpO22hqRV-13" style="edgeStyle=orthogonalEdgeStyle;curved=1;orthogonalLoop=1;jettySize=auto;html=1;exitX=0.5;exitY=1;exitDx=0;exitDy=0;entryX=1;entryY=0.5;entryDx=0;entryDy=0;fontSize=20;" edge="1" parent="1" source="rsF1plFDK6CUpO22hqRV-3" target="rsF1plFDK6CUpO22hqRV-2">
          <mxGeometry relative="1" as="geometry" />
        </mxCell>
        <mxCell id="rsF1plFDK6CUpO22hqRV-17" value="updates" style="edgeLabel;html=1;align=center;verticalAlign=middle;resizable=0;points=[];fontSize=20;labelBackgroundColor=none;" vertex="1" connectable="0" parent="rsF1plFDK6CUpO22hqRV-13">
          <mxGeometry x="-0.0286" y="-4" relative="1" as="geometry">
            <mxPoint x="8" y="14" as="offset" />
          </mxGeometry>
        </mxCell>
        <mxCell id="rsF1plFDK6CUpO22hqRV-3" value="Reducer" style="ellipse;whiteSpace=wrap;html=1;fontSize=20;fillColor=#a20025;strokeColor=#6F0000;fontColor=#ffffff;" vertex="1" parent="1">
          <mxGeometry x="560" y="160" width="120" height="80" as="geometry" />
        </mxCell>
        <mxCell id="rsF1plFDK6CUpO22hqRV-9" style="edgeStyle=orthogonalEdgeStyle;curved=1;orthogonalLoop=1;jettySize=auto;html=1;exitX=1;exitY=0.5;exitDx=0;exitDy=0;entryX=0.5;entryY=0;entryDx=0;entryDy=0;fontSize=20;" edge="1" parent="1" source="rsF1plFDK6CUpO22hqRV-4" target="rsF1plFDK6CUpO22hqRV-3">
          <mxGeometry relative="1" as="geometry" />
        </mxCell>
        <mxCell id="rsF1plFDK6CUpO22hqRV-16" value="sent to" style="edgeLabel;html=1;align=center;verticalAlign=middle;resizable=0;points=[];fontSize=20;labelBackgroundColor=none;" vertex="1" connectable="0" parent="rsF1plFDK6CUpO22hqRV-9">
          <mxGeometry x="-0.3" y="-1" relative="1" as="geometry">
            <mxPoint x="31" y="-11" as="offset" />
          </mxGeometry>
        </mxCell>
        <mxCell id="rsF1plFDK6CUpO22hqRV-4" value="Actions" style="ellipse;whiteSpace=wrap;html=1;fontSize=20;fillColor=#008a00;strokeColor=#005700;fontColor=#ffffff;" vertex="1" parent="1">
          <mxGeometry x="400" y="80" width="120" height="80" as="geometry" />
        </mxCell>
        <mxCell id="rsF1plFDK6CUpO22hqRV-12" style="edgeStyle=orthogonalEdgeStyle;curved=1;orthogonalLoop=1;jettySize=auto;html=1;exitX=1;exitY=0.5;exitDx=0;exitDy=0;entryX=0;entryY=0.5;entryDx=0;entryDy=0;fontSize=20;" edge="1" parent="1" source="rsF1plFDK6CUpO22hqRV-5" target="rsF1plFDK6CUpO22hqRV-4">
          <mxGeometry relative="1" as="geometry" />
        </mxCell>
        <mxCell id="rsF1plFDK6CUpO22hqRV-15" value="triggers" style="edgeLabel;html=1;align=center;verticalAlign=middle;resizable=0;points=[];fontSize=20;labelBackgroundColor=none;" vertex="1" connectable="0" parent="rsF1plFDK6CUpO22hqRV-12">
          <mxGeometry x="-0.025" y="-5" relative="1" as="geometry">
            <mxPoint y="-25" as="offset" />
          </mxGeometry>
        </mxCell>
        <mxCell id="rsF1plFDK6CUpO22hqRV-5" value="UI" style="ellipse;whiteSpace=wrap;html=1;fontSize=20;fillColor=#0050ef;strokeColor=#001DBC;fontColor=#ffffff;" vertex="1" parent="1">
          <mxGeometry x="160" y="80" width="120" height="80" as="geometry" />
        </mxCell>
      </root>
    </mxGraphModel>
  </diagram>
</mxfile>
